<svg xmlns="http://www.w3.org/2000/svg" width="260" height="260" viewBox="0 0 260 260">
  <rect width="260" height="260" fill="#2B1300"/>
  <g fill="none" stroke="#D9B382" stroke-width="1.5" opacity=".34">
    <path d="M30 30h200v200H30z"/>
    <path d="M70 30v200M130 30v200M190 30v200M30 70h200M30 130h200M30 190h200"/>
    <path d="M130 45c42 0 76 34 76 76s-34 76-76 76-76-34-76-76 34-76 76-76z"/>
    <path d="M130 75c25 0 46 21 46 46s-21 46-46 46-46-21-46-46 21-46 46-46z"/>
  </g>
  <g fill="#D9B382" opacity=".22">
    <circle cx="30" cy="30" r="5"/>
    <circle cx="230" cy="30" r="5"/>
    <circle cx="30" cy="230" r="5"/>
    <circle cx="230" cy="230" r="5"/>
    <circle cx="130" cy="130" r="8"/>
  </g>
</svg>
